<svg width="12" height="12" viewBox="0 0 12 12" fill="none" xmlns="http://www.w3.org/2000/svg">
<path d="M7.81978 7.20382L6.64228 8.36432C6.0284 7.99398 5.45814 7.55572 4.94228 7.05782C4.44533 6.54127 4.00731 5.97111 3.63628 5.35782L4.79578 4.18032C4.86542 4.10912 4.91245 4.01891 4.93096 3.92105C4.94946 3.82319 4.93861 3.72204 4.89978 3.63032L3.69128 0.807321C3.64364 0.696414 3.5578 0.606265 3.44937 0.553239C3.34093 0.500213 3.21707 0.487824 3.10028 0.518321L0.878281 1.10482C0.767259 1.13333 0.669287 1.19886 0.600556 1.29059C0.531826 1.38232 0.496452 1.49476 0.500281 1.60932C0.641473 4.1896 1.71441 6.63093 3.51978 8.47982C5.36908 10.2859 7.81119 11.3592 10.3923 11.5003C10.5068 11.5039 10.6192 11.4684 10.711 11.3998C10.8027 11.3311 10.8684 11.2332 10.8973 11.1223L11.4833 8.90232C11.5143 8.78531 11.5023 8.66103 11.4493 8.55216C11.3964 8.44329 11.306 8.3571 11.1948 8.30932L8.37428 7.10032C8.28206 7.06038 8.18001 7.04889 8.08121 7.06733C7.98242 7.08577 7.89139 7.1333 7.81978 7.20382Z" fill="#F4F4F4"/>
</svg>
