<svg width="21" height="20" viewBox="0 0 21 20" fill="none" xmlns="http://www.w3.org/2000/svg">
<path d="M15.7299 3.46C15.4926 3.46 15.2605 3.53038 15.0632 3.66224C14.8659 3.79409 14.7121 3.98151 14.6212 4.20078C14.5304 4.42005 14.5066 4.66133 14.5529 4.89411C14.5993 5.12689 14.7135 5.34071 14.8814 5.50853C15.0492 5.67635 15.263 5.79064 15.4958 5.83694C15.7286 5.88324 15.9698 5.85948 16.1891 5.76866C16.4084 5.67783 16.5958 5.52402 16.7277 5.32668C16.8595 5.12935 16.9299 4.89734 16.9299 4.66C16.9299 4.34174 16.8035 4.03652 16.5784 3.81147C16.3534 3.58643 16.0482 3.46 15.7299 3.46ZM20.3299 5.88C20.3104 5.0503 20.155 4.2294 19.8699 3.45C19.6156 2.78313 19.2199 2.17928 18.7099 1.68C18.2147 1.16743 17.6095 0.774176 16.9399 0.53C16.1625 0.236161 15.3407 0.07721 14.5099 0.0599999C13.4499 -5.58794e-08 13.1099 0 10.3899 0C7.66989 0 7.32989 -5.58794e-08 6.26989 0.0599999C5.43904 0.07721 4.61724 0.236161 3.83989 0.53C3.17157 0.776649 2.56683 1.16956 2.06989 1.68C1.55732 2.17518 1.16407 2.78044 0.919893 3.45C0.626053 4.22734 0.467103 5.04915 0.449893 5.88C0.389893 6.94 0.389893 7.28 0.389893 10C0.389893 12.72 0.389893 13.06 0.449893 14.12C0.467103 14.9508 0.626053 15.7727 0.919893 16.55C1.16407 17.2196 1.55732 17.8248 2.06989 18.32C2.56683 18.8304 3.17157 19.2234 3.83989 19.47C4.61724 19.7638 5.43904 19.9228 6.26989 19.94C7.32989 20 7.66989 20 10.3899 20C13.1099 20 13.4499 20 14.5099 19.94C15.3407 19.9228 16.1625 19.7638 16.9399 19.47C17.6095 19.2258 18.2147 18.8326 18.7099 18.32C19.2221 17.8226 19.6182 17.2182 19.8699 16.55C20.155 15.7706 20.3104 14.9497 20.3299 14.12C20.3299 13.06 20.3899 12.72 20.3899 10C20.3899 7.28 20.3899 6.94 20.3299 5.88ZM18.5299 14C18.5226 14.6348 18.4076 15.2637 18.1899 15.86C18.0302 16.2952 17.7738 16.6884 17.4399 17.01C17.1155 17.3405 16.7231 17.5964 16.2899 17.76C15.6936 17.9778 15.0647 18.0927 14.4299 18.1C13.4299 18.15 13.0599 18.16 10.4299 18.16C7.79989 18.16 7.42989 18.16 6.42989 18.1C5.77078 18.1123 5.11449 18.0109 4.48989 17.8C4.07567 17.6281 3.70125 17.3728 3.38989 17.05C3.05798 16.7287 2.80474 16.3352 2.64989 15.9C2.40575 15.2952 2.27034 14.6519 2.24989 14C2.24989 13 2.18989 12.63 2.18989 10C2.18989 7.37 2.18989 7 2.24989 6C2.25437 5.35106 2.37284 4.70795 2.59989 4.1C2.77594 3.67791 3.04616 3.30166 3.38989 3C3.69371 2.65617 4.06918 2.3831 4.48989 2.2C5.09944 1.98004 5.74189 1.86508 6.38989 1.86C7.38989 1.86 7.75989 1.8 10.3899 1.8C13.0199 1.8 13.3899 1.8 14.3899 1.86C15.0247 1.86728 15.6536 1.98225 16.2499 2.2C16.7043 2.36865 17.1122 2.64285 17.4399 3C17.7676 3.30718 18.0237 3.68273 18.1899 4.1C18.4121 4.70893 18.5272 5.35178 18.5299 6C18.5799 7 18.5899 7.37 18.5899 10C18.5899 12.63 18.5799 13 18.5299 14ZM10.3899 4.87C9.20608 4.87375 8.06014 5.2876 7.14711 6.04112C6.23408 6.79465 5.61037 7.84128 5.38214 9.00289C5.15392 10.1645 5.33527 11.3693 5.89534 12.4123C6.4554 13.4552 7.35958 14.2719 8.45397 14.7232C9.54837 15.1746 10.7654 15.2328 11.8978 14.8878C13.0303 14.5429 14.0082 13.8163 14.6652 12.8315C15.3222 11.8467 15.6177 10.6647 15.5013 9.48662C15.3849 8.30853 14.8639 7.20718 14.0269 6.37C13.5492 5.89296 12.982 5.5149 12.3579 5.25749C11.7338 5.00009 11.065 4.86841 10.3899 4.87ZM10.3899 13.33C9.73128 13.33 9.08746 13.1347 8.53984 12.7688C7.99223 12.4029 7.56541 11.8828 7.31337 11.2743C7.06133 10.6659 6.99539 9.99631 7.12388 9.35035C7.25237 8.70439 7.56952 8.11104 8.03523 7.64533C8.50094 7.17963 9.09429 6.86247 9.74024 6.73398C10.3862 6.6055 11.0558 6.67144 11.6642 6.92348C12.2727 7.17552 12.7928 7.60234 13.1587 8.14995C13.5246 8.69757 13.7199 9.34139 13.7199 10C13.7199 10.4373 13.6338 10.8703 13.4664 11.2743C13.2991 11.6784 13.0538 12.0454 12.7446 12.3547C12.4353 12.6639 12.0682 12.9092 11.6642 13.0765C11.2602 13.2439 10.8272 13.33 10.3899 13.33Z" fill="#F4F4F4"/>
</svg>
