<?xml version="1.0" encoding="UTF-8"?><svg id="Layer_2" fill="white" xmlns="http://www.w3.org/2000/svg" viewBox="0 0 244.07 149.01"><defs><style>.cls-1{stroke-width:0px;}</style></defs><g id="Layer_1-2"><path class="cls-1" d="m104.7,45.28c-5.34,9.11-13.64,16.73-23.71,19.9s-21.88,1.41-29.73-5.65c-7.86-7.06-10.87-18.72-8.37-28.98,3.36-13.81,14.43-20.8,19.43-23.79C75.88-1.35,89.81-.28,95.59.59c18.64,2.8,39.07,16.51,45,39,7.15,27.09-11.62,48.39-14,51-16.09,17.65-39.85,20.21-48.38,21.14-7.33.79-32.92.35-52.17,4.59-4.78,1.05-9.64,2.54-13.33,5.75s-5.93,8.53-4.27,13.13c2.14,5.94,9.49,8.19,15.8,7.97,9.61-.33,18.69-4.37,27.09-9.06,26.98-15.09,49.49-37.79,65.04-64.45,5.27-9.03,9.47-18.52,13.48-28.16,1.53-3.68,1.68-4.2,2.28-5.42,1.23-2.52,2.86-5.24,5.36-8.63C157.12.65,201.92-9.38,229.04,12.05c9.25,7.3,15.52,18.79,15.01,30.56-4.4-3.08-9.46-5.22-14.74-6.23-2.48-.48-5.37-.62-6.91,1.88-.61.98-.81,2.18-.68,3.32.32,2.86,2.19,5.02,3.86,7.21,4.73,6.18,11.32,24.15,12.57,35.65.41,3.8,2.39,22.09-8.56,38.15-12.16,17.85-32.88,22.08-43.39,24.23-23.74,4.85-49.19.09-49.18,0,0-.01,5.52.66,14.18.58,0,0,8.07-.08,15.03-.87,25.63-2.93,53.1-14.79,64.26-39.75,1.47-3.28,2.59-6.72,3.34-10.23,3.25-15.33-1.56-33.95-8.34-43.82-1.91-2.78-4.12-5.48-5.01-8.74-.89-3.25,0-7.32,3-8.86,1.43-.73,3.1-.79,4.69-.67,5.37.38,10.6,2.59,14.63,6.17-.19-3.33-.95-9.01-4.26-15.02-3.43-6.22-7.86-9.67-10.94-12.01-2.25-1.71-12.01-8.84-27-11-19.11-2.75-41.86,3.29-55.94,18.95-3.03,3.37-7.06,8.31-11.91,19.74-5.4,12.73-10.87,25.79-17.95,37.66-16.06,26.91-41.05,49.68-69.82,62.28-5.01,2.19-10.15,4.08-15.4,5.62-4.84,1.42-9.88,2.55-14.91,2.06-5.02-.5-10.08-2.86-12.76-7.14-3.66-5.82-1.43-13.68,1.78-18.28,4.73-6.79,13.05-8.4,23.92-9.89,30.82-4.23,38.96-1.41,57-5,13.25-2.64,24.69-4.92,35-14,11.71-10.31,23.63-30.84,17.05-53.29C127.85,11.33,94.23,5.83,92.59,5.59c-3.83-.56-19.9-2.91-34,7-3.66,2.57-12.1,8.51-14.39,19.53-1.95,9.43.83,21.15,9.72,27.94,7.83,5.98,18.86,6.8,28.15,3.51,9.29-3.29,16.95-10.24,22.63-18.29Z"/></g></svg>